<mxfile host="65bd71144e">
    <diagram id="7-6UzgJ52HKAVXeZKGqz" name="software">
        <mxGraphModel dx="800" dy="1002" grid="1" gridSize="10" guides="1" tooltips="1" connect="1" arrows="1" fold="1" page="1" pageScale="1" pageWidth="827" pageHeight="1169" background="#ffffff" math="0" shadow="0">
            <root>
                <mxCell id="0"/>
                <mxCell id="1" parent="0"/>
                <mxCell id="JeGFqwelHVcg5ZtquUTr-81" value="" style="group;fontStyle=1" parent="1" vertex="1" connectable="0">
                    <mxGeometry x="620" y="280" width="60" height="90" as="geometry"/>
                </mxCell>
                <mxCell id="JeGFqwelHVcg5ZtquUTr-71" value="" style="sketch=0;aspect=fixed;pointerEvents=1;shadow=0;dashed=0;html=1;labelPosition=center;verticalLabelPosition=bottom;verticalAlign=top;align=center;shape=mxgraph.mscae.enterprise.database_server" parent="JeGFqwelHVcg5ZtquUTr-81" vertex="1">
                    <mxGeometry x="11" width="38" height="50" as="geometry"/>
                </mxCell>
                <mxCell id="JeGFqwelHVcg5ZtquUTr-72" value="&lt;font color=&quot;#000000&quot;&gt;&lt;b&gt;Artifacts repository&lt;/b&gt;&lt;/font&gt;" style="text;html=1;strokeColor=none;fillColor=none;align=center;verticalAlign=middle;whiteSpace=wrap;rounded=0;" parent="JeGFqwelHVcg5ZtquUTr-81" vertex="1">
                    <mxGeometry y="60" width="60" height="30" as="geometry"/>
                </mxCell>
                <mxCell id="JeGFqwelHVcg5ZtquUTr-82" value="" style="group" parent="1" vertex="1" connectable="0">
                    <mxGeometry x="620" y="180" width="60" height="90" as="geometry"/>
                </mxCell>
                <mxCell id="JeGFqwelHVcg5ZtquUTr-70" value="" style="sketch=0;aspect=fixed;pointerEvents=1;shadow=0;dashed=0;html=1;labelPosition=center;verticalLabelPosition=bottom;verticalAlign=top;align=center;shape=mxgraph.mscae.enterprise.database_server" parent="JeGFqwelHVcg5ZtquUTr-82" vertex="1">
                    <mxGeometry x="11" width="38" height="50" as="geometry"/>
                </mxCell>
                <mxCell id="JeGFqwelHVcg5ZtquUTr-73" value="&lt;font color=&quot;#000000&quot;&gt;&lt;b&gt;MRS&lt;/b&gt;&lt;/font&gt;" style="text;html=1;strokeColor=none;fillColor=none;align=center;verticalAlign=middle;whiteSpace=wrap;rounded=0;" parent="JeGFqwelHVcg5ZtquUTr-82" vertex="1">
                    <mxGeometry y="60" width="60" height="30" as="geometry"/>
                </mxCell>
                <mxCell id="JeGFqwelHVcg5ZtquUTr-86" value="" style="endArrow=classic;html=1;fontColor=#000000;strokeColor=#000000;strokeWidth=2;exitX=0.25;exitY=1;exitDx=0;exitDy=0;" parent="1" edge="1">
                    <mxGeometry width="50" height="50" relative="1" as="geometry">
                        <mxPoint x="283" y="169.9999999999999" as="sourcePoint"/>
                        <mxPoint x="190" y="400" as="targetPoint"/>
                    </mxGeometry>
                </mxCell>
                <mxCell id="JeGFqwelHVcg5ZtquUTr-89" value="&lt;font color=&quot;#000000&quot;&gt;1. Setup&lt;/font&gt;" style="text;html=1;strokeColor=none;fillColor=none;align=center;verticalAlign=middle;whiteSpace=wrap;rounded=0;fontStyle=1" parent="1" vertex="1">
                    <mxGeometry x="180" y="240" width="60" height="30" as="geometry"/>
                </mxCell>
                <mxCell id="JeGFqwelHVcg5ZtquUTr-90" value="" style="endArrow=classic;html=1;fontColor=#000000;strokeColor=#000000;strokeWidth=2;" parent="1" edge="1">
                    <mxGeometry width="50" height="50" relative="1" as="geometry">
                        <mxPoint x="310" y="170" as="sourcePoint"/>
                        <mxPoint x="340" y="400" as="targetPoint"/>
                    </mxGeometry>
                </mxCell>
                <mxCell id="JeGFqwelHVcg5ZtquUTr-91" value="&lt;font color=&quot;#000000&quot;&gt;2. Experiment&lt;/font&gt;" style="text;html=1;strokeColor=none;fillColor=none;align=center;verticalAlign=middle;whiteSpace=wrap;rounded=0;fontStyle=1" parent="1" vertex="1">
                    <mxGeometry x="240" y="330" width="90" height="30" as="geometry"/>
                </mxCell>
                <mxCell id="JeGFqwelHVcg5ZtquUTr-93" value="&lt;font color=&quot;#000000&quot;&gt;3. Evaluation&lt;/font&gt;" style="text;html=1;strokeColor=none;fillColor=none;align=center;verticalAlign=middle;whiteSpace=wrap;rounded=0;fontStyle=1" parent="1" vertex="1">
                    <mxGeometry x="391" y="240" width="90" height="30" as="geometry"/>
                </mxCell>
                <mxCell id="JeGFqwelHVcg5ZtquUTr-96" value="" style="endArrow=classic;html=1;fontColor=#000000;strokeColor=#000000;strokeWidth=2;" parent="1" edge="1">
                    <mxGeometry width="50" height="50" relative="1" as="geometry">
                        <mxPoint x="340" y="170" as="sourcePoint"/>
                        <mxPoint x="470" y="400" as="targetPoint"/>
                    </mxGeometry>
                </mxCell>
                <mxCell id="JeGFqwelHVcg5ZtquUTr-97" value="" style="endArrow=classic;html=1;fontColor=#000000;strokeColor=#000000;strokeWidth=2;" parent="1" edge="1">
                    <mxGeometry width="50" height="50" relative="1" as="geometry">
                        <mxPoint x="510" y="400" as="sourcePoint"/>
                        <mxPoint x="620" y="320" as="targetPoint"/>
                    </mxGeometry>
                </mxCell>
                <mxCell id="JeGFqwelHVcg5ZtquUTr-98" value="" style="endArrow=classic;html=1;fontColor=#000000;strokeColor=#000000;strokeWidth=2;" parent="1" edge="1">
                    <mxGeometry width="50" height="50" relative="1" as="geometry">
                        <mxPoint x="490" y="400" as="sourcePoint"/>
                        <mxPoint x="620" y="210" as="targetPoint"/>
                    </mxGeometry>
                </mxCell>
                <mxCell id="2" value="" style="rounded=1;whiteSpace=wrap;html=1;strokeColor=#000000;strokeWidth=1;fontColor=#000000;fillColor=none;align=center;verticalAlign=top;dashed=1;" parent="1" vertex="1">
                    <mxGeometry x="160" y="410" width="510" height="190" as="geometry"/>
                </mxCell>
                <mxCell id="3" value="&lt;b&gt;UDR&lt;/b&gt;" style="rounded=1;whiteSpace=wrap;html=1;strokeColor=#000000;strokeWidth=1;fontColor=#000000;fillColor=none;align=left;verticalAlign=top;" parent="1" vertex="1">
                    <mxGeometry x="280" y="430" width="78" height="32" as="geometry"/>
                </mxCell>
                <mxCell id="4" value="&lt;b&gt;UDM&lt;/b&gt;" style="rounded=1;whiteSpace=wrap;html=1;strokeColor=#000000;strokeWidth=1;fontColor=#000000;fillColor=none;align=left;verticalAlign=top;" parent="1" vertex="1">
                    <mxGeometry x="370" y="430" width="78" height="32" as="geometry"/>
                </mxCell>
                <mxCell id="5" value="&lt;b&gt;NRF&lt;/b&gt;" style="rounded=1;whiteSpace=wrap;html=1;strokeColor=#000000;strokeWidth=1;fontColor=#000000;fillColor=none;align=left;verticalAlign=top;" parent="1" vertex="1">
                    <mxGeometry x="551" y="430" width="78" height="32" as="geometry"/>
                </mxCell>
                <mxCell id="6" value="&lt;b&gt;AMF&lt;/b&gt;" style="rounded=1;whiteSpace=wrap;html=1;strokeColor=#000000;strokeWidth=1;fontColor=#000000;fillColor=none;align=left;verticalAlign=top;" parent="1" vertex="1">
                    <mxGeometry x="280" y="520" width="78" height="32" as="geometry"/>
                </mxCell>
                <mxCell id="7" value="&lt;b&gt;UPF&lt;/b&gt;" style="rounded=1;whiteSpace=wrap;html=1;strokeColor=#000000;strokeWidth=1;fontColor=#000000;fillColor=none;align=left;verticalAlign=top;" parent="1" vertex="1">
                    <mxGeometry x="460" y="520" width="78" height="32" as="geometry"/>
                </mxCell>
                <mxCell id="8" value="&lt;b&gt;SMF&lt;/b&gt;" style="rounded=1;whiteSpace=wrap;html=1;strokeColor=#000000;strokeWidth=1;fontColor=#000000;fillColor=none;align=left;verticalAlign=top;" parent="1" vertex="1">
                    <mxGeometry x="370" y="520" width="78" height="32" as="geometry"/>
                </mxCell>
                <mxCell id="9" value="&lt;b&gt;AUSF&lt;/b&gt;" style="rounded=1;whiteSpace=wrap;html=1;strokeColor=#000000;strokeWidth=1;fontColor=#000000;fillColor=none;align=left;verticalAlign=top;" parent="1" vertex="1">
                    <mxGeometry x="460" y="430" width="78" height="32" as="geometry"/>
                </mxCell>
                <mxCell id="10" value="&lt;b&gt;Database&lt;/b&gt;" style="rounded=1;whiteSpace=wrap;html=1;strokeColor=#000000;strokeWidth=1;fontColor=#000000;fillColor=none;align=left;verticalAlign=top;" parent="1" vertex="1">
                    <mxGeometry x="194" y="520" width="78" height="32" as="geometry"/>
                </mxCell>
                <mxCell id="11" value="" style="endArrow=none;html=1;fontColor=#000000;strokeWidth=4;strokeColor=#000000;" parent="1" edge="1">
                    <mxGeometry width="50" height="50" relative="1" as="geometry">
                        <mxPoint x="650" y="490" as="sourcePoint"/>
                        <mxPoint x="180" y="490" as="targetPoint"/>
                    </mxGeometry>
                </mxCell>
                <mxCell id="12" style="edgeStyle=none;html=1;strokeColor=#000000;strokeWidth=1;fontColor=#000000;endArrow=none;endFill=0;exitX=0.5;exitY=1;exitDx=0;exitDy=0;" parent="1" source="5" edge="1">
                    <mxGeometry relative="1" as="geometry">
                        <mxPoint x="590" y="490" as="targetPoint"/>
                        <mxPoint x="588.63" y="444" as="sourcePoint"/>
                    </mxGeometry>
                </mxCell>
                <mxCell id="13" style="edgeStyle=none;html=1;strokeColor=#000000;strokeWidth=1;fontColor=#000000;endArrow=none;endFill=0;exitX=0.5;exitY=1;exitDx=0;exitDy=0;" parent="1" source="9" edge="1">
                    <mxGeometry relative="1" as="geometry">
                        <mxPoint x="498.9200000000001" y="490" as="targetPoint"/>
                        <mxPoint x="498.92" y="462" as="sourcePoint"/>
                    </mxGeometry>
                </mxCell>
                <mxCell id="14" style="edgeStyle=none;html=1;strokeColor=#000000;strokeWidth=1;fontColor=#000000;endArrow=none;endFill=0;exitX=0.5;exitY=1;exitDx=0;exitDy=0;" parent="1" source="4" edge="1">
                    <mxGeometry relative="1" as="geometry">
                        <mxPoint x="408.9200000000001" y="490" as="targetPoint"/>
                        <mxPoint x="408.92" y="462" as="sourcePoint"/>
                    </mxGeometry>
                </mxCell>
                <mxCell id="15" style="edgeStyle=none;html=1;strokeColor=#000000;strokeWidth=1;fontColor=#000000;endArrow=none;endFill=0;exitX=0.5;exitY=1;exitDx=0;exitDy=0;" parent="1" source="3" edge="1">
                    <mxGeometry relative="1" as="geometry">
                        <mxPoint x="318.78999999999996" y="490" as="targetPoint"/>
                        <mxPoint x="318.79" y="462" as="sourcePoint"/>
                    </mxGeometry>
                </mxCell>
                <mxCell id="16" style="edgeStyle=none;html=1;strokeColor=#000000;strokeWidth=1;fontColor=#000000;endArrow=none;endFill=0;exitX=0.5;exitY=1;exitDx=0;exitDy=0;" parent="1" edge="1">
                    <mxGeometry relative="1" as="geometry">
                        <mxPoint x="500" y="520" as="targetPoint"/>
                        <mxPoint x="500" y="492" as="sourcePoint"/>
                    </mxGeometry>
                </mxCell>
                <mxCell id="17" style="edgeStyle=none;html=1;strokeColor=#000000;strokeWidth=1;fontColor=#000000;endArrow=none;endFill=0;exitX=0.5;exitY=1;exitDx=0;exitDy=0;" parent="1" edge="1">
                    <mxGeometry relative="1" as="geometry">
                        <mxPoint x="410" y="520" as="targetPoint"/>
                        <mxPoint x="410" y="492" as="sourcePoint"/>
                    </mxGeometry>
                </mxCell>
                <mxCell id="18" style="edgeStyle=none;html=1;strokeColor=#000000;strokeWidth=1;fontColor=#000000;endArrow=none;endFill=0;exitX=0.5;exitY=1;exitDx=0;exitDy=0;" parent="1" edge="1">
                    <mxGeometry relative="1" as="geometry">
                        <mxPoint x="320" y="520" as="targetPoint"/>
                        <mxPoint x="320" y="492" as="sourcePoint"/>
                    </mxGeometry>
                </mxCell>
                <mxCell id="19" style="edgeStyle=none;html=1;strokeColor=#000000;strokeWidth=1;fontColor=#000000;endArrow=none;endFill=0;exitX=0.5;exitY=1;exitDx=0;exitDy=0;" parent="1" edge="1">
                    <mxGeometry relative="1" as="geometry">
                        <mxPoint x="230" y="520" as="targetPoint"/>
                        <mxPoint x="230" y="492" as="sourcePoint"/>
                    </mxGeometry>
                </mxCell>
                <mxCell id="23" style="edgeStyle=none;html=1;strokeColor=#001DBC;strokeWidth=1;fontColor=#000000;endArrow=none;endFill=0;fillColor=#0050ef;exitX=0.5;exitY=1;exitDx=0;exitDy=0;" parent="1" source="6" edge="1">
                    <mxGeometry relative="1" as="geometry">
                        <mxPoint x="320" y="580" as="targetPoint"/>
                        <mxPoint x="330" y="562" as="sourcePoint"/>
                    </mxGeometry>
                </mxCell>
                <mxCell id="24" style="edgeStyle=none;html=1;strokeColor=#001DBC;strokeWidth=1;fontColor=#000000;endArrow=none;endFill=0;fillColor=#0050ef;exitX=0.5;exitY=1;exitDx=0;exitDy=0;" parent="1" source="7" edge="1">
                    <mxGeometry relative="1" as="geometry">
                        <mxPoint x="499" y="580" as="targetPoint"/>
                        <mxPoint x="498.71" y="552" as="sourcePoint"/>
                    </mxGeometry>
                </mxCell>
                <mxCell id="27" style="edgeStyle=none;html=1;strokeColor=#808080;strokeWidth=1;fontColor=#000000;endArrow=none;endFill=0;fillColor=#a20025;" parent="1" edge="1">
                    <mxGeometry relative="1" as="geometry">
                        <mxPoint x="424" y="640" as="targetPoint"/>
                        <mxPoint x="424" y="580" as="sourcePoint"/>
                    </mxGeometry>
                </mxCell>
                <mxCell id="28" value="" style="endArrow=none;html=1;fontColor=#000000;strokeWidth=4;strokeColor=#001DBC;fillColor=#0050ef;" parent="1" edge="1">
                    <mxGeometry width="50" height="50" relative="1" as="geometry">
                        <mxPoint x="530" y="580" as="sourcePoint"/>
                        <mxPoint x="280" y="580" as="targetPoint"/>
                    </mxGeometry>
                </mxCell>
                <mxCell id="30" value="" style="sketch=0;html=1;aspect=fixed;shadow=0;align=center;verticalAlign=top;shape=mxgraph.gcp2.gear_load" parent="1" vertex="1">
                    <mxGeometry x="260" y="70" width="100" height="92" as="geometry"/>
                </mxCell>
                <mxCell id="31" value="&lt;font color=&quot;#000000&quot;&gt;pos&lt;/font&gt;" style="text;html=1;strokeColor=none;fillColor=none;align=center;verticalAlign=middle;whiteSpace=wrap;rounded=0;fontStyle=1" parent="1" vertex="1">
                    <mxGeometry x="219" y="140" width="90" height="30" as="geometry"/>
                </mxCell>
                <mxCell id="37" value="" style="group;fillColor=#FFFFFF;" parent="1" vertex="1" connectable="0">
                    <mxGeometry x="541.2" y="350" width="58.80000000000001" height="20" as="geometry"/>
                </mxCell>
                <mxCell id="32" value="" style="sketch=0;aspect=fixed;pointerEvents=1;shadow=0;dashed=0;html=1;labelPosition=center;verticalLabelPosition=bottom;verticalAlign=top;align=center;shape=mxgraph.azure.file" parent="37" vertex="1">
                    <mxGeometry width="18.8" height="20" as="geometry"/>
                </mxCell>
                <mxCell id="35" value="" style="sketch=0;aspect=fixed;pointerEvents=1;shadow=0;dashed=0;html=1;labelPosition=center;verticalLabelPosition=bottom;verticalAlign=top;align=center;shape=mxgraph.azure.file" parent="37" vertex="1">
                    <mxGeometry x="20" width="18.8" height="20" as="geometry"/>
                </mxCell>
                <mxCell id="36" value="" style="sketch=0;aspect=fixed;pointerEvents=1;shadow=0;dashed=0;html=1;labelPosition=center;verticalLabelPosition=bottom;verticalAlign=top;align=center;shape=mxgraph.azure.file" parent="37" vertex="1">
                    <mxGeometry x="40" width="18.8" height="20" as="geometry"/>
                </mxCell>
                <mxCell id="38" value="" style="rounded=1;whiteSpace=wrap;html=1;strokeColor=#000000;strokeWidth=1;fontColor=#000000;fillColor=none;align=center;verticalAlign=top;dashed=1;" vertex="1" parent="1">
                    <mxGeometry x="140" y="620" width="530" height="140" as="geometry"/>
                </mxCell>
                <mxCell id="39" value="&lt;b&gt;CU-CP&lt;/b&gt;" style="rounded=1;whiteSpace=wrap;html=1;strokeColor=#000000;strokeWidth=1;fontColor=#000000;fillColor=none;align=left;verticalAlign=top;" vertex="1" parent="1">
                    <mxGeometry x="269" y="660" width="78" height="32" as="geometry"/>
                </mxCell>
                <mxCell id="40" value="&lt;b&gt;UE&lt;/b&gt;" style="rounded=1;whiteSpace=wrap;html=1;strokeColor=#000000;strokeWidth=1;fontColor=#000000;fillColor=none;align=left;verticalAlign=top;" vertex="1" parent="1">
                    <mxGeometry x="570" y="710" width="78" height="32" as="geometry"/>
                </mxCell>
                <mxCell id="41" style="edgeStyle=none;html=1;strokeColor=#000000;strokeWidth=1;fontColor=#000000;endArrow=none;endFill=0;exitX=0.5;exitY=1;exitDx=0;exitDy=0;entryX=0.5;entryY=0;entryDx=0;entryDy=0;dashed=1;" edge="1" parent="1" source="50" target="40">
                    <mxGeometry relative="1" as="geometry">
                        <mxPoint x="319" y="420" as="targetPoint"/>
                        <mxPoint x="319" y="392" as="sourcePoint"/>
                    </mxGeometry>
                </mxCell>
                <mxCell id="42" style="edgeStyle=none;html=1;strokeColor=#005700;strokeWidth=1;fontColor=#000000;endArrow=none;endFill=0;fillColor=#008a00;" edge="1" parent="1">
                    <mxGeometry relative="1" as="geometry">
                        <mxPoint x="309" y="660" as="targetPoint"/>
                        <mxPoint x="309" y="640" as="sourcePoint"/>
                    </mxGeometry>
                </mxCell>
                <mxCell id="43" value="" style="endArrow=none;html=1;fontColor=#000000;strokeWidth=4;strokeColor=#005700;fillColor=#008a00;exitX=0.941;exitY=0.143;exitDx=0;exitDy=0;exitPerimeter=0;" edge="1" parent="1" source="38">
                    <mxGeometry width="50" height="50" relative="1" as="geometry">
                        <mxPoint x="369" y="640" as="sourcePoint"/>
                        <mxPoint x="160" y="640" as="targetPoint"/>
                    </mxGeometry>
                </mxCell>
                <mxCell id="44" value="&lt;b&gt;CU-UP&lt;/b&gt;" style="rounded=1;whiteSpace=wrap;html=1;strokeColor=#000000;strokeWidth=1;fontColor=#000000;fillColor=none;align=left;verticalAlign=top;" vertex="1" parent="1">
                    <mxGeometry x="370.5" y="660" width="78" height="32" as="geometry"/>
                </mxCell>
                <mxCell id="45" value="&lt;b&gt;DU&lt;/b&gt;" style="rounded=1;whiteSpace=wrap;html=1;strokeColor=#000000;strokeWidth=1;fontColor=#000000;fillColor=none;align=left;verticalAlign=top;" vertex="1" parent="1">
                    <mxGeometry x="471" y="660" width="78" height="32" as="geometry"/>
                </mxCell>
                <mxCell id="46" style="edgeStyle=none;html=1;strokeColor=#005700;strokeWidth=1;fontColor=#000000;endArrow=none;endFill=0;fillColor=#008a00;entryX=0.5;entryY=0;entryDx=0;entryDy=0;" edge="1" parent="1" target="44">
                    <mxGeometry relative="1" as="geometry">
                        <mxPoint x="409.45999999999987" y="660" as="targetPoint"/>
                        <mxPoint x="409.4599999999998" y="640" as="sourcePoint"/>
                    </mxGeometry>
                </mxCell>
                <mxCell id="47" style="edgeStyle=none;html=1;strokeColor=#005700;strokeWidth=1;fontColor=#000000;endArrow=none;endFill=0;fillColor=#008a00;entryX=0.5;entryY=0;entryDx=0;entryDy=0;" edge="1" parent="1" target="45">
                    <mxGeometry relative="1" as="geometry">
                        <mxPoint x="519.04" y="660" as="targetPoint"/>
                        <mxPoint x="510" y="640" as="sourcePoint"/>
                    </mxGeometry>
                </mxCell>
                <mxCell id="48" value="&lt;b&gt;UPF&lt;/b&gt;" style="rounded=1;whiteSpace=wrap;html=1;strokeColor=#000000;strokeWidth=1;fontColor=#000000;fillColor=none;align=left;verticalAlign=top;" vertex="1" parent="1">
                    <mxGeometry x="170" y="660" width="78" height="32" as="geometry"/>
                </mxCell>
                <mxCell id="49" style="edgeStyle=none;html=1;strokeColor=#005700;strokeWidth=1;fontColor=#000000;endArrow=none;endFill=0;fillColor=#008a00;entryX=0.5;entryY=0;entryDx=0;entryDy=0;" edge="1" parent="1" target="48">
                    <mxGeometry relative="1" as="geometry">
                        <mxPoint x="220" y="660" as="targetPoint"/>
                        <mxPoint x="209" y="640" as="sourcePoint"/>
                    </mxGeometry>
                </mxCell>
                <mxCell id="50" value="&lt;b&gt;RU&lt;/b&gt;" style="rounded=1;whiteSpace=wrap;html=1;strokeColor=#000000;strokeWidth=1;fontColor=#000000;fillColor=none;align=left;verticalAlign=top;" vertex="1" parent="1">
                    <mxGeometry x="570" y="660" width="78" height="32" as="geometry"/>
                </mxCell>
                <mxCell id="51" style="edgeStyle=none;html=1;strokeColor=#000000;strokeWidth=1;fontColor=#000000;endArrow=none;endFill=0;fillColor=#008a00;entryX=0;entryY=0.5;entryDx=0;entryDy=0;exitX=1;exitY=0.5;exitDx=0;exitDy=0;" edge="1" parent="1" source="45" target="50">
                    <mxGeometry relative="1" as="geometry">
                        <mxPoint x="608.8300000000002" y="660" as="targetPoint"/>
                        <mxPoint x="608.83" y="640" as="sourcePoint"/>
                    </mxGeometry>
                </mxCell>
            </root>
        </mxGraphModel>
    </diagram>
</mxfile>